solid OpenSCAD_Model
  facet normal 0 0 -1
    outer loop
      vertex 17.269 -20.0205 4.5
      vertex 15.25 -13.799 4.5
      vertex 18.525 -19.4349 4.5
    endloop
  endfacet
  facet normal 0 0 -1
    outer loop
      vertex 21.4349 -16.525 4.5
      vertex 15.799 -13.25 4.5
      vertex 22.0205 -15.269 4.5
    endloop
  endfacet
  facet normal 0 0 -1
    outer loop
      vertex 20.64 -17.6601 4.5
      vertex 15.799 -13.25 4.5
      vertex 21.4349 -16.525 4.5
    endloop
  endfacet
  facet normal 0 -0 -1
    outer loop
      vertex 15.799 -13.25 4.5
      vertex 19.6601 -18.64 4.5
      vertex 15.25 -13.799 4.5
    endloop
  endfacet
  facet normal 0 0 -1
    outer loop
      vertex 22.3792 -13.9305 4.5
      vertex 16 -12.5 4.5
      vertex 22.5 -12.55 4.5
    endloop
  endfacet
  facet normal 0 0 -1
    outer loop
      vertex 22.3792 -13.9305 4.5
      vertex 15.799 -13.25 4.5
      vertex 16 -12.5 4.5
    endloop
  endfacet
  facet normal 0 0 -1
    outer loop
      vertex 15.9305 -20.3792 4.5
      vertex 15.25 -13.799 4.5
      vertex 17.269 -20.0205 4.5
    endloop
  endfacet
  facet normal 0 0 -1
    outer loop
      vertex 15.799 -11.75 4.5
      vertex 15.25 -11.201 4.5
      vertex 22.5 -12.55 4.5
    endloop
  endfacet
  facet normal 0 0 -1
    outer loop
      vertex 13.201 11.75 4.5
      vertex -13.201 11.75 4.5
      vertex 13 12.5 4.5
    endloop
  endfacet
  facet normal 0 0 -1
    outer loop
      vertex 15.799 13.25 4.5
      vertex 19.6601 18.64 4.5
      vertex 20.64 17.6601 4.5
    endloop
  endfacet
  facet normal 0 0 -1
    outer loop
      vertex 15.25 13.799 4.5
      vertex 14.5 14 4.5
      vertex 15.9305 20.3792 4.5
    endloop
  endfacet
  facet normal 0 -0 -1
    outer loop
      vertex 17.269 20.0205 4.5
      vertex 18.525 19.4349 4.5
      vertex 15.25 13.799 4.5
    endloop
  endfacet
  facet normal 0 -0 -1
    outer loop
      vertex 14.55 20.5 4.5
      vertex 15.9305 20.3792 4.5
      vertex 14.5 14 4.5
    endloop
  endfacet
  facet normal 0 0 -1
    outer loop
      vertex 13.75 13.799 4.5
      vertex 14.55 20.5 4.5
      vertex 14.5 14 4.5
    endloop
  endfacet
  facet normal 0 0 -1
    outer loop
      vertex 15.25 13.799 4.5
      vertex 18.525 19.4349 4.5
      vertex 19.6601 18.64 4.5
    endloop
  endfacet
  facet normal 0 0 -1
    outer loop
      vertex 14.55 20.5 4.5
      vertex 13.75 13.799 4.5
      vertex 13.201 13.25 4.5
    endloop
  endfacet
  facet normal -0 0 -1
    outer loop
      vertex 21.4349 16.525 4.5
      vertex 15.799 13.25 4.5
      vertex 20.64 17.6601 4.5
    endloop
  endfacet
  facet normal 0 0 -1
    outer loop
      vertex -13.201 13.25 4.5
      vertex 13.201 13.25 4.5
      vertex 13 12.5 4.5
    endloop
  endfacet
  facet normal 0 0 -1
    outer loop
      vertex -15.25 -11.201 4.5
      vertex -15.799 -11.75 4.5
      vertex -22.5 -12.55 4.5
    endloop
  endfacet
  facet normal -0 0 -1
    outer loop
      vertex -15.25 13.799 4.5
      vertex -15.799 13.25 4.5
      vertex -19.6601 18.64 4.5
    endloop
  endfacet
  facet normal -0 0 -1
    outer loop
      vertex -15.799 13.25 4.5
      vertex -16 12.5 4.5
      vertex -22.3792 13.9305 4.5
    endloop
  endfacet
  facet normal 0 0 -1
    outer loop
      vertex -22.0205 15.269 4.5
      vertex -21.4349 16.525 4.5
      vertex -15.799 13.25 4.5
    endloop
  endfacet
  facet normal 0 0 -1
    outer loop
      vertex -22.5 12.55 4.5
      vertex -22.3792 13.9305 4.5
      vertex -16 12.5 4.5
    endloop
  endfacet
  facet normal 0 0 -1
    outer loop
      vertex -15.799 11.75 4.5
      vertex -22.5 12.55 4.5
      vertex -16 12.5 4.5
    endloop
  endfacet
  facet normal 0 0 -1
    outer loop
      vertex -15.799 13.25 4.5
      vertex -21.4349 16.525 4.5
      vertex -20.64 17.6601 4.5
    endloop
  endfacet
  facet normal 0 0 -1
    outer loop
      vertex -22.5 12.55 4.5
      vertex -15.799 11.75 4.5
      vertex -15.25 11.201 4.5
    endloop
  endfacet
  facet normal 0 -0 -1
    outer loop
      vertex -18.525 19.4349 4.5
      vertex -15.25 13.799 4.5
      vertex -19.6601 18.64 4.5
    endloop
  endfacet
  facet normal 0 0 -1
    outer loop
      vertex -15.799 -13.25 4.5
      vertex -21.4349 -16.525 4.5
      vertex -22.0205 -15.269 4.5
    endloop
  endfacet
  facet normal -0 0 -1
    outer loop
      vertex -16 -12.5 4.5
      vertex -22.5 -12.55 4.5
      vertex -15.799 -11.75 4.5
    endloop
  endfacet
  facet normal 0 0 -1
    outer loop
      vertex -15.799 -13.25 4.5
      vertex -19.6601 -18.64 4.5
      vertex -20.64 -17.6601 4.5
    endloop
  endfacet
  facet normal 0 0 -1
    outer loop
      vertex -15.25 -13.799 4.5
      vertex -18.525 -19.4349 4.5
      vertex -19.6601 -18.64 4.5
    endloop
  endfacet
  facet normal 0 0 -1
    outer loop
      vertex -15.25 -13.799 4.5
      vertex -17.269 -20.0205 4.5
      vertex -18.525 -19.4349 4.5
    endloop
  endfacet
  facet normal 0 -0 -1
    outer loop
      vertex -15.799 -13.25 4.5
      vertex -15.25 -13.799 4.5
      vertex -19.6601 -18.64 4.5
    endloop
  endfacet
  facet normal 0 -0 -1
    outer loop
      vertex -15.25 -13.799 4.5
      vertex -14.5 -14 4.5
      vertex -15.9305 -20.3792 4.5
    endloop
  endfacet
  facet normal 0 0 -1
    outer loop
      vertex -17.269 -20.0205 4.5
      vertex -15.25 -13.799 4.5
      vertex -15.9305 -20.3792 4.5
    endloop
  endfacet
  facet normal 0 0 -1
    outer loop
      vertex -21.4349 -16.525 4.5
      vertex -15.799 -13.25 4.5
      vertex -20.64 -17.6601 4.5
    endloop
  endfacet
  facet normal 0 0 -1
    outer loop
      vertex -14.5 -14 4.5
      vertex -14.55 -20.5 4.5
      vertex -15.9305 -20.3792 4.5
    endloop
  endfacet
  facet normal 0 0 -1
    outer loop
      vertex -13.75 -11.201 4.5
      vertex -13.75 11.201 4.5
      vertex -13.201 -11.75 4.5
    endloop
  endfacet
  facet normal 0 0 -1
    outer loop
      vertex -18.525 19.4349 4.5
      vertex -17.269 20.0205 4.5
      vertex -15.25 13.799 4.5
    endloop
  endfacet
  facet normal -0 0 -1
    outer loop
      vertex 15.9305 -20.3792 4.5
      vertex 14.55 -20.5 4.5
      vertex 14.5 -14 4.5
    endloop
  endfacet
  facet normal 0 0 -1
    outer loop
      vertex -22.5 12.55 4.5
      vertex -15.25 -11.201 4.5
      vertex -22.5 -12.55 4.5
    endloop
  endfacet
  facet normal 0 -0 -1
    outer loop
      vertex -15.9305 20.3792 4.5
      vertex -15.25 13.799 4.5
      vertex -17.269 20.0205 4.5
    endloop
  endfacet
  facet normal 0 -0 -1
    outer loop
      vertex -22.0205 15.269 4.5
      vertex -15.799 13.25 4.5
      vertex -22.3792 13.9305 4.5
    endloop
  endfacet
  facet normal 0 0 -1
    outer loop
      vertex -15.799 13.25 4.5
      vertex -20.64 17.6601 4.5
      vertex -19.6601 18.64 4.5
    endloop
  endfacet
  facet normal 0 0 -1
    outer loop
      vertex -15.9305 20.3792 4.5
      vertex -14.5 14 4.5
      vertex -15.25 13.799 4.5
    endloop
  endfacet
  facet normal 0 0 -1
    outer loop
      vertex -13.75 13.799 4.5
      vertex -14.5 14 4.5
      vertex -14.55 20.5 4.5
    endloop
  endfacet
  facet normal 0 0 -1
    outer loop
      vertex -14.5 14 4.5
      vertex -15.9305 20.3792 4.5
      vertex -14.55 20.5 4.5
    endloop
  endfacet
  facet normal 0 0 -1
    outer loop
      vertex -13.201 13.25 4.5
      vertex -13.75 13.799 4.5
      vertex -14.55 20.5 4.5
    endloop
  endfacet
  facet normal 0 0 -1
    outer loop
      vertex 13.201 13.25 4.5
      vertex -13.201 13.25 4.5
      vertex -14.55 20.5 4.5
    endloop
  endfacet
  facet normal -0 0 -1
    outer loop
      vertex 13.75 -11.201 4.5
      vertex 13.201 -11.75 4.5
      vertex 13.201 11.75 4.5
    endloop
  endfacet
  facet normal 0 0 -1
    outer loop
      vertex -13.201 -11.75 4.5
      vertex -13.75 11.201 4.5
      vertex -13.201 11.75 4.5
    endloop
  endfacet
  facet normal 0 0 -1
    outer loop
      vertex 22.5 -12.55 4.5
      vertex 15.25 11.201 4.5
      vertex 22.5 12.55 4.5
    endloop
  endfacet
  facet normal -0 0 -1
    outer loop
      vertex 22.0205 15.269 4.5
      vertex 15.799 13.25 4.5
      vertex 21.4349 16.525 4.5
    endloop
  endfacet
  facet normal -0 -0 -1
    outer loop
      vertex -14.5 11 4.5
      vertex -14.5 -11 4.5
      vertex -15.25 11.201 4.5
    endloop
  endfacet
  facet normal -0 0 -1
    outer loop
      vertex 22.3792 13.9305 4.5
      vertex 15.799 13.25 4.5
      vertex 22.0205 15.269 4.5
    endloop
  endfacet
  facet normal -0 0 -1
    outer loop
      vertex 13 12.5 4.5
      vertex -13.201 11.75 4.5
      vertex -13 12.5 4.5
    endloop
  endfacet
  facet normal 0 0 -1
    outer loop
      vertex -13.201 13.25 4.5
      vertex 13 12.5 4.5
      vertex -13 12.5 4.5
    endloop
  endfacet
  facet normal -0 0 -1
    outer loop
      vertex 14.55 20.5 4.5
      vertex 13.201 13.25 4.5
      vertex -14.55 20.5 4.5
    endloop
  endfacet
  facet normal -0 0 -1
    outer loop
      vertex 17.269 20.0205 4.5
      vertex 15.25 13.799 4.5
      vertex 15.9305 20.3792 4.5
    endloop
  endfacet
  facet normal 0 0 -1
    outer loop
      vertex 15.25 13.799 4.5
      vertex 19.6601 18.64 4.5
      vertex 15.799 13.25 4.5
    endloop
  endfacet
  facet normal 0 0 -1
    outer loop
      vertex 22.3792 13.9305 4.5
      vertex 16 12.5 4.5
      vertex 15.799 13.25 4.5
    endloop
  endfacet
  facet normal 0 -0 -1
    outer loop
      vertex 22.3792 13.9305 4.5
      vertex 22.5 12.55 4.5
      vertex 16 12.5 4.5
    endloop
  endfacet
  facet normal 0 -0 -1
    outer loop
      vertex 16 12.5 4.5
      vertex 22.5 12.55 4.5
      vertex 15.799 11.75 4.5
    endloop
  endfacet
  facet normal 0 -0 -1
    outer loop
      vertex 15.799 11.75 4.5
      vertex 22.5 12.55 4.5
      vertex 15.25 11.201 4.5
    endloop
  endfacet
  facet normal 0 0 -1
    outer loop
      vertex 13.75 -11.201 4.5
      vertex 13.75 11.201 4.5
      vertex 14.5 -11 4.5
    endloop
  endfacet
  facet normal -0 -0 -1
    outer loop
      vertex -15.25 11.201 4.5
      vertex -15.25 -11.201 4.5
      vertex -22.5 12.55 4.5
    endloop
  endfacet
  facet normal 0 0 -1
    outer loop
      vertex -15.799 -13.25 4.5
      vertex -22.0205 -15.269 4.5
      vertex -22.3792 -13.9305 4.5
    endloop
  endfacet
  facet normal -0 0 -1
    outer loop
      vertex -14.5 -11 4.5
      vertex -15.25 -11.201 4.5
      vertex -15.25 11.201 4.5
    endloop
  endfacet
  facet normal 0 -0 -1
    outer loop
      vertex -16 -12.5 4.5
      vertex -15.799 -13.25 4.5
      vertex -22.3792 -13.9305 4.5
    endloop
  endfacet
  facet normal 0 0 -1
    outer loop
      vertex -22.5 -12.55 4.5
      vertex -16 -12.5 4.5
      vertex -22.3792 -13.9305 4.5
    endloop
  endfacet
  facet normal 0 -0 -1
    outer loop
      vertex -13.201 -13.25 4.5
      vertex 13.201 -13.25 4.5
      vertex -14.55 -20.5 4.5
    endloop
  endfacet
  facet normal 0 0 -1
    outer loop
      vertex -14.5 11 4.5
      vertex -13.75 11.201 4.5
      vertex -13.75 -11.201 4.5
    endloop
  endfacet
  facet normal 0 0 -1
    outer loop
      vertex -14.5 11 4.5
      vertex -13.75 -11.201 4.5
      vertex -14.5 -11 4.5
    endloop
  endfacet
  facet normal 0 0 -1
    outer loop
      vertex 13.201 -11.75 4.5
      vertex -13.201 -11.75 4.5
      vertex -13.201 11.75 4.5
    endloop
  endfacet
  facet normal 0 0 -1
    outer loop
      vertex 14.55 -20.5 4.5
      vertex -14.55 -20.5 4.5
      vertex 13.201 -13.25 4.5
    endloop
  endfacet
  facet normal 0 0 -1
    outer loop
      vertex 13.75 -13.799 4.5
      vertex 14.5 -14 4.5
      vertex 14.55 -20.5 4.5
    endloop
  endfacet
  facet normal -0 -0 -1
    outer loop
      vertex 13.75 -13.799 4.5
      vertex 14.55 -20.5 4.5
      vertex 13.201 -13.25 4.5
    endloop
  endfacet
  facet normal 0 0 -1
    outer loop
      vertex -13.201 -13.25 4.5
      vertex -14.55 -20.5 4.5
      vertex -13.75 -13.799 4.5
    endloop
  endfacet
  facet normal 0 0 -1
    outer loop
      vertex -13.75 -13.799 4.5
      vertex -14.55 -20.5 4.5
      vertex -14.5 -14 4.5
    endloop
  endfacet
  facet normal 0 -0 -1
    outer loop
      vertex 13 -12.5 4.5
      vertex 13.201 -13.25 4.5
      vertex -13.201 -13.25 4.5
    endloop
  endfacet
  facet normal 0 -0 -1
    outer loop
      vertex -13 -12.5 4.5
      vertex 13 -12.5 4.5
      vertex -13.201 -13.25 4.5
    endloop
  endfacet
  facet normal 0 0 -1
    outer loop
      vertex -13.201 11.75 4.5
      vertex 13.201 11.75 4.5
      vertex 13.201 -11.75 4.5
    endloop
  endfacet
  facet normal -0 0 -1
    outer loop
      vertex 13.201 -11.75 4.5
      vertex 13 -12.5 4.5
      vertex -13.201 -11.75 4.5
    endloop
  endfacet
  facet normal 0 0 -1
    outer loop
      vertex 13 -12.5 4.5
      vertex -13 -12.5 4.5
      vertex -13.201 -11.75 4.5
    endloop
  endfacet
  facet normal 0 0 -1
    outer loop
      vertex 13.201 11.75 4.5
      vertex 13.75 11.201 4.5
      vertex 13.75 -11.201 4.5
    endloop
  endfacet
  facet normal 0 0 -1
    outer loop
      vertex 13.75 11.201 4.5
      vertex 14.5 11 4.5
      vertex 14.5 -11 4.5
    endloop
  endfacet
  facet normal 0 0 -1
    outer loop
      vertex 15.25 -11.201 4.5
      vertex 14.5 11 4.5
      vertex 15.25 11.201 4.5
    endloop
  endfacet
  facet normal 0 0 -1
    outer loop
      vertex 14.5 -11 4.5
      vertex 14.5 11 4.5
      vertex 15.25 -11.201 4.5
    endloop
  endfacet
  facet normal 0 0 -1
    outer loop
      vertex 15.25 -11.201 4.5
      vertex 15.25 11.201 4.5
      vertex 22.5 -12.55 4.5
    endloop
  endfacet
  facet normal 0 0 -1
    outer loop
      vertex 15.799 -11.75 4.5
      vertex 22.5 -12.55 4.5
      vertex 16 -12.5 4.5
    endloop
  endfacet
  facet normal -0 0 -1
    outer loop
      vertex 22.3792 -13.9305 4.5
      vertex 22.0205 -15.269 4.5
      vertex 15.799 -13.25 4.5
    endloop
  endfacet
  facet normal 0 0 -1
    outer loop
      vertex 15.799 -13.25 4.5
      vertex 20.64 -17.6601 4.5
      vertex 19.6601 -18.64 4.5
    endloop
  endfacet
  facet normal 0 0 -1
    outer loop
      vertex 14.5 -14 4.5
      vertex 15.25 -13.799 4.5
      vertex 15.9305 -20.3792 4.5
    endloop
  endfacet
  facet normal 0 0 -1
    outer loop
      vertex 15.25 -13.799 4.5
      vertex 19.6601 -18.64 4.5
      vertex 18.525 -19.4349 4.5
    endloop
  endfacet
  facet normal 0 0 1
    outer loop
      vertex 18.525 -19.4349 13.5
      vertex 15.25 -13.799 13.5
      vertex 17.269 -20.0205 13.5
    endloop
  endfacet
  facet normal 0 0 1
    outer loop
      vertex 22.0205 -15.269 13.5
      vertex 15.799 -13.25 13.5
      vertex 21.4349 -16.525 13.5
    endloop
  endfacet
  facet normal 0 0 1
    outer loop
      vertex 21.4349 -16.525 13.5
      vertex 15.799 -13.25 13.5
      vertex 20.64 -17.6601 13.5
    endloop
  endfacet
  facet normal -0 0 1
    outer loop
      vertex 15.25 -13.799 13.5
      vertex 19.6601 -18.64 13.5
      vertex 15.799 -13.25 13.5
    endloop
  endfacet
  facet normal 0 0 1
    outer loop
      vertex 22.5 -12.55 13.5
      vertex 16 -12.5 13.5
      vertex 22.3792 -13.9305 13.5
    endloop
  endfacet
  facet normal 0 0 1
    outer loop
      vertex 16 -12.5 13.5
      vertex 15.799 -13.25 13.5
      vertex 22.3792 -13.9305 13.5
    endloop
  endfacet
  facet normal 0 0 1
    outer loop
      vertex 17.269 -20.0205 13.5
      vertex 15.25 -13.799 13.5
      vertex 15.9305 -20.3792 13.5
    endloop
  endfacet
  facet normal 0 0 1
    outer loop
      vertex 22.5 -12.55 13.5
      vertex 15.25 -11.201 13.5
      vertex 15.799 -11.75 13.5
    endloop
  endfacet
  facet normal 0 0 1
    outer loop
      vertex 13 12.5 13.5
      vertex -13.201 11.75 13.5
      vertex 13.201 11.75 13.5
    endloop
  endfacet
  facet normal 0 0 1
    outer loop
      vertex 20.64 17.6601 13.5
      vertex 19.6601 18.64 13.5
      vertex 15.799 13.25 13.5
    endloop
  endfacet
  facet normal 0 0 1
    outer loop
      vertex 15.9305 20.3792 13.5
      vertex 14.5 14 13.5
      vertex 15.25 13.799 13.5
    endloop
  endfacet
  facet normal 0 0 1
    outer loop
      vertex 15.25 13.799 13.5
      vertex 18.525 19.4349 13.5
      vertex 17.269 20.0205 13.5
    endloop
  endfacet
  facet normal 0 0 1
    outer loop
      vertex 14.5 14 13.5
      vertex 15.9305 20.3792 13.5
      vertex 14.55 20.5 13.5
    endloop
  endfacet
  facet normal 0 -0 1
    outer loop
      vertex 14.5 14 13.5
      vertex 14.55 20.5 13.5
      vertex 13.75 13.799 13.5
    endloop
  endfacet
  facet normal 0 0 1
    outer loop
      vertex 19.6601 18.64 13.5
      vertex 18.525 19.4349 13.5
      vertex 15.25 13.799 13.5
    endloop
  endfacet
  facet normal 0 0 1
    outer loop
      vertex 13.201 13.25 13.5
      vertex 13.75 13.799 13.5
      vertex 14.55 20.5 13.5
    endloop
  endfacet
  facet normal 0 0 1
    outer loop
      vertex 20.64 17.6601 13.5
      vertex 15.799 13.25 13.5
      vertex 21.4349 16.525 13.5
    endloop
  endfacet
  facet normal 0 -0 1
    outer loop
      vertex 13 12.5 13.5
      vertex 13.201 13.25 13.5
      vertex -13.201 13.25 13.5
    endloop
  endfacet
  facet normal 0 0 1
    outer loop
      vertex -22.5 -12.55 13.5
      vertex -15.799 -11.75 13.5
      vertex -15.25 -11.201 13.5
    endloop
  endfacet
  facet normal 0 0 1
    outer loop
      vertex -19.6601 18.64 13.5
      vertex -15.799 13.25 13.5
      vertex -15.25 13.799 13.5
    endloop
  endfacet
  facet normal 0 0 1
    outer loop
      vertex -22.3792 13.9305 13.5
      vertex -16 12.5 13.5
      vertex -15.799 13.25 13.5
    endloop
  endfacet
  facet normal 0 0 1
    outer loop
      vertex -15.799 13.25 13.5
      vertex -21.4349 16.525 13.5
      vertex -22.0205 15.269 13.5
    endloop
  endfacet
  facet normal 0 0 1
    outer loop
      vertex -16 12.5 13.5
      vertex -22.3792 13.9305 13.5
      vertex -22.5 12.55 13.5
    endloop
  endfacet
  facet normal 0 0 1
    outer loop
      vertex -16 12.5 13.5
      vertex -22.5 12.55 13.5
      vertex -15.799 11.75 13.5
    endloop
  endfacet
  facet normal 0 0 1
    outer loop
      vertex -20.64 17.6601 13.5
      vertex -21.4349 16.525 13.5
      vertex -15.799 13.25 13.5
    endloop
  endfacet
  facet normal 0 0 1
    outer loop
      vertex -15.25 11.201 13.5
      vertex -15.799 11.75 13.5
      vertex -22.5 12.55 13.5
    endloop
  endfacet
  facet normal -0 0 1
    outer loop
      vertex -19.6601 18.64 13.5
      vertex -15.25 13.799 13.5
      vertex -18.525 19.4349 13.5
    endloop
  endfacet
  facet normal -0 0 1
    outer loop
      vertex -22.0205 -15.269 13.5
      vertex -21.4349 -16.525 13.5
      vertex -15.799 -13.25 13.5
    endloop
  endfacet
  facet normal 0 0 1
    outer loop
      vertex -15.799 -11.75 13.5
      vertex -22.5 -12.55 13.5
      vertex -16 -12.5 13.5
    endloop
  endfacet
  facet normal -0 0 1
    outer loop
      vertex -20.64 -17.6601 13.5
      vertex -19.6601 -18.64 13.5
      vertex -15.799 -13.25 13.5
    endloop
  endfacet
  facet normal -0 0 1
    outer loop
      vertex -19.6601 -18.64 13.5
      vertex -18.525 -19.4349 13.5
      vertex -15.25 -13.799 13.5
    endloop
  endfacet
  facet normal -0 0 1
    outer loop
      vertex -18.525 -19.4349 13.5
      vertex -17.269 -20.0205 13.5
      vertex -15.25 -13.799 13.5
    endloop
  endfacet
  facet normal 0 0 1
    outer loop
      vertex -19.6601 -18.64 13.5
      vertex -15.25 -13.799 13.5
      vertex -15.799 -13.25 13.5
    endloop
  endfacet
  facet normal 0 0 1
    outer loop
      vertex -15.9305 -20.3792 13.5
      vertex -14.5 -14 13.5
      vertex -15.25 -13.799 13.5
    endloop
  endfacet
  facet normal 0 -0 1
    outer loop
      vertex -15.9305 -20.3792 13.5
      vertex -15.25 -13.799 13.5
      vertex -17.269 -20.0205 13.5
    endloop
  endfacet
  facet normal 0 -0 1
    outer loop
      vertex -20.64 -17.6601 13.5
      vertex -15.799 -13.25 13.5
      vertex -21.4349 -16.525 13.5
    endloop
  endfacet
  facet normal -0 0 1
    outer loop
      vertex -15.9305 -20.3792 13.5
      vertex -14.55 -20.5 13.5
      vertex -14.5 -14 13.5
    endloop
  endfacet
  facet normal 0 0 1
    outer loop
      vertex -13.201 -11.75 13.5
      vertex -13.75 11.201 13.5
      vertex -13.75 -11.201 13.5
    endloop
  endfacet
  facet normal 0 0 1
    outer loop
      vertex -15.25 13.799 13.5
      vertex -17.269 20.0205 13.5
      vertex -18.525 19.4349 13.5
    endloop
  endfacet
  facet normal 0 0 1
    outer loop
      vertex 14.5 -14 13.5
      vertex 14.55 -20.5 13.5
      vertex 15.9305 -20.3792 13.5
    endloop
  endfacet
  facet normal 0 0 1
    outer loop
      vertex -22.5 -12.55 13.5
      vertex -15.25 -11.201 13.5
      vertex -22.5 12.55 13.5
    endloop
  endfacet
  facet normal -0 0 1
    outer loop
      vertex -17.269 20.0205 13.5
      vertex -15.25 13.799 13.5
      vertex -15.9305 20.3792 13.5
    endloop
  endfacet
  facet normal -0 0 1
    outer loop
      vertex -22.3792 13.9305 13.5
      vertex -15.799 13.25 13.5
      vertex -22.0205 15.269 13.5
    endloop
  endfacet
  facet normal 0 0 1
    outer loop
      vertex -19.6601 18.64 13.5
      vertex -20.64 17.6601 13.5
      vertex -15.799 13.25 13.5
    endloop
  endfacet
  facet normal 0 -0 1
    outer loop
      vertex -15.25 13.799 13.5
      vertex -14.5 14 13.5
      vertex -15.9305 20.3792 13.5
    endloop
  endfacet
  facet normal 0 0 1
    outer loop
      vertex -14.55 20.5 13.5
      vertex -14.5 14 13.5
      vertex -13.75 13.799 13.5
    endloop
  endfacet
  facet normal 0 0 1
    outer loop
      vertex -14.55 20.5 13.5
      vertex -15.9305 20.3792 13.5
      vertex -14.5 14 13.5
    endloop
  endfacet
  facet normal 0 0 1
    outer loop
      vertex -14.55 20.5 13.5
      vertex -13.75 13.799 13.5
      vertex -13.201 13.25 13.5
    endloop
  endfacet
  facet normal 0 0 1
    outer loop
      vertex -14.55 20.5 13.5
      vertex -13.201 13.25 13.5
      vertex 13.201 13.25 13.5
    endloop
  endfacet
  facet normal 0 0 1
    outer loop
      vertex 13.201 11.75 13.5
      vertex 13.201 -11.75 13.5
      vertex 13.75 -11.201 13.5
    endloop
  endfacet
  facet normal 0 0 1
    outer loop
      vertex -13.201 11.75 13.5
      vertex -13.75 11.201 13.5
      vertex -13.201 -11.75 13.5
    endloop
  endfacet
  facet normal 0 0 1
    outer loop
      vertex 22.5 12.55 13.5
      vertex 15.25 11.201 13.5
      vertex 22.5 -12.55 13.5
    endloop
  endfacet
  facet normal 0 0 1
    outer loop
      vertex 21.4349 16.525 13.5
      vertex 15.799 13.25 13.5
      vertex 22.0205 15.269 13.5
    endloop
  endfacet
  facet normal 0 0 1
    outer loop
      vertex -15.25 11.201 13.5
      vertex -14.5 -11 13.5
      vertex -14.5 11 13.5
    endloop
  endfacet
  facet normal 0 0 1
    outer loop
      vertex 22.0205 15.269 13.5
      vertex 15.799 13.25 13.5
      vertex 22.3792 13.9305 13.5
    endloop
  endfacet
  facet normal -0 0 1
    outer loop
      vertex -13 12.5 13.5
      vertex -13.201 11.75 13.5
      vertex 13 12.5 13.5
    endloop
  endfacet
  facet normal 0 -0 1
    outer loop
      vertex -13 12.5 13.5
      vertex 13 12.5 13.5
      vertex -13.201 13.25 13.5
    endloop
  endfacet
  facet normal -0 0 1
    outer loop
      vertex -14.55 20.5 13.5
      vertex 13.201 13.25 13.5
      vertex 14.55 20.5 13.5
    endloop
  endfacet
  facet normal 0 0 1
    outer loop
      vertex 15.9305 20.3792 13.5
      vertex 15.25 13.799 13.5
      vertex 17.269 20.0205 13.5
    endloop
  endfacet
  facet normal 0 -0 1
    outer loop
      vertex 15.799 13.25 13.5
      vertex 19.6601 18.64 13.5
      vertex 15.25 13.799 13.5
    endloop
  endfacet
  facet normal -0 0 1
    outer loop
      vertex 15.799 13.25 13.5
      vertex 16 12.5 13.5
      vertex 22.3792 13.9305 13.5
    endloop
  endfacet
  facet normal 0 0 1
    outer loop
      vertex 16 12.5 13.5
      vertex 22.5 12.55 13.5
      vertex 22.3792 13.9305 13.5
    endloop
  endfacet
  facet normal 0 0 1
    outer loop
      vertex 15.799 11.75 13.5
      vertex 22.5 12.55 13.5
      vertex 16 12.5 13.5
    endloop
  endfacet
  facet normal 0 0 1
    outer loop
      vertex 15.25 11.201 13.5
      vertex 22.5 12.55 13.5
      vertex 15.799 11.75 13.5
    endloop
  endfacet
  facet normal 0 0 1
    outer loop
      vertex 14.5 -11 13.5
      vertex 13.75 11.201 13.5
      vertex 13.75 -11.201 13.5
    endloop
  endfacet
  facet normal 0 0 1
    outer loop
      vertex -22.5 12.55 13.5
      vertex -15.25 -11.201 13.5
      vertex -15.25 11.201 13.5
    endloop
  endfacet
  facet normal -0 0 1
    outer loop
      vertex -22.3792 -13.9305 13.5
      vertex -22.0205 -15.269 13.5
      vertex -15.799 -13.25 13.5
    endloop
  endfacet
  facet normal 0 0 1
    outer loop
      vertex -15.25 11.201 13.5
      vertex -15.25 -11.201 13.5
      vertex -14.5 -11 13.5
    endloop
  endfacet
  facet normal 0 0 1
    outer loop
      vertex -22.3792 -13.9305 13.5
      vertex -15.799 -13.25 13.5
      vertex -16 -12.5 13.5
    endloop
  endfacet
  facet normal 0 -0 1
    outer loop
      vertex -22.3792 -13.9305 13.5
      vertex -16 -12.5 13.5
      vertex -22.5 -12.55 13.5
    endloop
  endfacet
  facet normal 0 0 1
    outer loop
      vertex -14.55 -20.5 13.5
      vertex 13.201 -13.25 13.5
      vertex -13.201 -13.25 13.5
    endloop
  endfacet
  facet normal 0 -0 1
    outer loop
      vertex -13.75 -11.201 13.5
      vertex -13.75 11.201 13.5
      vertex -14.5 11 13.5
    endloop
  endfacet
  facet normal -0 0 1
    outer loop
      vertex -14.5 -11 13.5
      vertex -13.75 -11.201 13.5
      vertex -14.5 11 13.5
    endloop
  endfacet
  facet normal 0 0 1
    outer loop
      vertex -13.201 11.75 13.5
      vertex -13.201 -11.75 13.5
      vertex 13.201 -11.75 13.5
    endloop
  endfacet
  facet normal 0 0 1
    outer loop
      vertex 13.201 -13.25 13.5
      vertex -14.55 -20.5 13.5
      vertex 14.55 -20.5 13.5
    endloop
  endfacet
  facet normal 0 0 1
    outer loop
      vertex 14.55 -20.5 13.5
      vertex 14.5 -14 13.5
      vertex 13.75 -13.799 13.5
    endloop
  endfacet
  facet normal 0 0 1
    outer loop
      vertex 13.201 -13.25 13.5
      vertex 14.55 -20.5 13.5
      vertex 13.75 -13.799 13.5
    endloop
  endfacet
  facet normal -0 0 1
    outer loop
      vertex -13.75 -13.799 13.5
      vertex -14.55 -20.5 13.5
      vertex -13.201 -13.25 13.5
    endloop
  endfacet
  facet normal -0 0 1
    outer loop
      vertex -14.5 -14 13.5
      vertex -14.55 -20.5 13.5
      vertex -13.75 -13.799 13.5
    endloop
  endfacet
  facet normal 0 0 1
    outer loop
      vertex -13.201 -13.25 13.5
      vertex 13.201 -13.25 13.5
      vertex 13 -12.5 13.5
    endloop
  endfacet
  facet normal 0 0 1
    outer loop
      vertex -13.201 -13.25 13.5
      vertex 13 -12.5 13.5
      vertex -13 -12.5 13.5
    endloop
  endfacet
  facet normal 0 -0 1
    outer loop
      vertex 13.201 -11.75 13.5
      vertex 13.201 11.75 13.5
      vertex -13.201 11.75 13.5
    endloop
  endfacet
  facet normal -0 0 1
    outer loop
      vertex -13.201 -11.75 13.5
      vertex 13 -12.5 13.5
      vertex 13.201 -11.75 13.5
    endloop
  endfacet
  facet normal 0 0 1
    outer loop
      vertex -13.201 -11.75 13.5
      vertex -13 -12.5 13.5
      vertex 13 -12.5 13.5
    endloop
  endfacet
  facet normal 0 -0 1
    outer loop
      vertex 13.75 -11.201 13.5
      vertex 13.75 11.201 13.5
      vertex 13.201 11.75 13.5
    endloop
  endfacet
  facet normal 0 -0 1
    outer loop
      vertex 14.5 -11 13.5
      vertex 14.5 11 13.5
      vertex 13.75 11.201 13.5
    endloop
  endfacet
  facet normal 0 0 1
    outer loop
      vertex 15.25 11.201 13.5
      vertex 14.5 11 13.5
      vertex 15.25 -11.201 13.5
    endloop
  endfacet
  facet normal 0 0 1
    outer loop
      vertex 15.25 -11.201 13.5
      vertex 14.5 11 13.5
      vertex 14.5 -11 13.5
    endloop
  endfacet
  facet normal 0 0 1
    outer loop
      vertex 22.5 -12.55 13.5
      vertex 15.25 11.201 13.5
      vertex 15.25 -11.201 13.5
    endloop
  endfacet
  facet normal -0 -0 1
    outer loop
      vertex 16 -12.5 13.5
      vertex 22.5 -12.55 13.5
      vertex 15.799 -11.75 13.5
    endloop
  endfacet
  facet normal 0 0 1
    outer loop
      vertex 15.799 -13.25 13.5
      vertex 22.0205 -15.269 13.5
      vertex 22.3792 -13.9305 13.5
    endloop
  endfacet
  facet normal 0 -0 1
    outer loop
      vertex 19.6601 -18.64 13.5
      vertex 20.64 -17.6601 13.5
      vertex 15.799 -13.25 13.5
    endloop
  endfacet
  facet normal 0 0 1
    outer loop
      vertex 15.9305 -20.3792 13.5
      vertex 15.25 -13.799 13.5
      vertex 14.5 -14 13.5
    endloop
  endfacet
  facet normal 0 -0 1
    outer loop
      vertex 18.525 -19.4349 13.5
      vertex 19.6601 -18.64 13.5
      vertex 15.25 -13.799 13.5
    endloop
  endfacet
  facet normal 0.258813 -0.965927 0
    outer loop
      vertex 17.269 -20.0205 4.5
      vertex 15.9305 -20.3792 13.5
      vertex 15.9305 -20.3792 4.5
    endloop
  endfacet
  facet normal 0.258813 -0.965927 0
    outer loop
      vertex 17.269 -20.0205 4.5
      vertex 17.269 -20.0205 13.5
      vertex 15.9305 -20.3792 13.5
    endloop
  endfacet
  facet normal 0.422624 -0.906305 0
    outer loop
      vertex 18.525 -19.4349 4.5
      vertex 17.269 -20.0205 13.5
      vertex 17.269 -20.0205 4.5
    endloop
  endfacet
  facet normal 0.422624 -0.906305 0
    outer loop
      vertex 18.525 -19.4349 4.5
      vertex 18.525 -19.4349 13.5
      vertex 17.269 -20.0205 13.5
    endloop
  endfacet
  facet normal 0.573575 -0.819153 0
    outer loop
      vertex 19.6601 -18.64 4.5
      vertex 18.525 -19.4349 13.5
      vertex 18.525 -19.4349 4.5
    endloop
  endfacet
  facet normal 0.573575 -0.819153 0
    outer loop
      vertex 19.6601 -18.64 4.5
      vertex 19.6601 -18.64 13.5
      vertex 18.525 -19.4349 13.5
    endloop
  endfacet
  facet normal 0.707107 -0.707107 0
    outer loop
      vertex 20.64 -17.6601 4.5
      vertex 19.6601 -18.64 13.5
      vertex 19.6601 -18.64 4.5
    endloop
  endfacet
  facet normal 0.707107 -0.707107 0
    outer loop
      vertex 20.64 -17.6601 4.5
      vertex 20.64 -17.6601 13.5
      vertex 19.6601 -18.64 13.5
    endloop
  endfacet
  facet normal 0.819153 -0.573575 0
    outer loop
      vertex 21.4349 -16.525 4.5
      vertex 20.64 -17.6601 13.5
      vertex 20.64 -17.6601 4.5
    endloop
  endfacet
  facet normal 0.819153 -0.573575 0
    outer loop
      vertex 21.4349 -16.525 4.5
      vertex 21.4349 -16.525 13.5
      vertex 20.64 -17.6601 13.5
    endloop
  endfacet
  facet normal 0.906305 -0.422624 0
    outer loop
      vertex 22.0205 -15.269 4.5
      vertex 21.4349 -16.525 13.5
      vertex 21.4349 -16.525 4.5
    endloop
  endfacet
  facet normal 0.906305 -0.422624 0
    outer loop
      vertex 22.0205 -15.269 4.5
      vertex 22.0205 -15.269 13.5
      vertex 21.4349 -16.525 13.5
    endloop
  endfacet
  facet normal 0.965927 -0.258813 0
    outer loop
      vertex 22.3792 -13.9305 4.5
      vertex 22.0205 -15.269 13.5
      vertex 22.0205 -15.269 4.5
    endloop
  endfacet
  facet normal 0.965927 -0.258813 0
    outer loop
      vertex 22.3792 -13.9305 4.5
      vertex 22.3792 -13.9305 13.5
      vertex 22.0205 -15.269 13.5
    endloop
  endfacet
  facet normal 0.996194 -0.0871637 0
    outer loop
      vertex 22.5 -12.55 4.5
      vertex 22.3792 -13.9305 13.5
      vertex 22.3792 -13.9305 4.5
    endloop
  endfacet
  facet normal 0.996194 -0.0871637 0
    outer loop
      vertex 22.5 -12.55 4.5
      vertex 22.5 -12.55 13.5
      vertex 22.3792 -13.9305 13.5
    endloop
  endfacet
  facet normal 1 0 0
    outer loop
      vertex 22.5 12.55 4.5
      vertex 22.5 -12.55 13.5
      vertex 22.5 -12.55 4.5
    endloop
  endfacet
  facet normal 1 0 -0
    outer loop
      vertex 22.5 12.55 4.5
      vertex 22.5 12.55 13.5
      vertex 22.5 -12.55 13.5
    endloop
  endfacet
  facet normal 0.996194 0.0871637 0
    outer loop
      vertex 22.3792 13.9305 4.5
      vertex 22.5 12.55 13.5
      vertex 22.5 12.55 4.5
    endloop
  endfacet
  facet normal 0.996194 0.0871637 -0
    outer loop
      vertex 22.3792 13.9305 4.5
      vertex 22.3792 13.9305 13.5
      vertex 22.5 12.55 13.5
    endloop
  endfacet
  facet normal 0.965927 0.258813 0
    outer loop
      vertex 22.0205 15.269 4.5
      vertex 22.3792 13.9305 13.5
      vertex 22.3792 13.9305 4.5
    endloop
  endfacet
  facet normal 0.965927 0.258813 -0
    outer loop
      vertex 22.0205 15.269 4.5
      vertex 22.0205 15.269 13.5
      vertex 22.3792 13.9305 13.5
    endloop
  endfacet
  facet normal 0.906305 0.422624 0
    outer loop
      vertex 21.4349 16.525 4.5
      vertex 22.0205 15.269 13.5
      vertex 22.0205 15.269 4.5
    endloop
  endfacet
  facet normal 0.906305 0.422624 -0
    outer loop
      vertex 21.4349 16.525 4.5
      vertex 21.4349 16.525 13.5
      vertex 22.0205 15.269 13.5
    endloop
  endfacet
  facet normal 0.819153 0.573575 0
    outer loop
      vertex 20.64 17.6601 4.5
      vertex 21.4349 16.525 13.5
      vertex 21.4349 16.525 4.5
    endloop
  endfacet
  facet normal 0.819153 0.573575 -0
    outer loop
      vertex 20.64 17.6601 4.5
      vertex 20.64 17.6601 13.5
      vertex 21.4349 16.525 13.5
    endloop
  endfacet
  facet normal 0.707107 0.707107 0
    outer loop
      vertex 19.6601 18.64 4.5
      vertex 20.64 17.6601 13.5
      vertex 20.64 17.6601 4.5
    endloop
  endfacet
  facet normal 0.707107 0.707107 -0
    outer loop
      vertex 19.6601 18.64 4.5
      vertex 19.6601 18.64 13.5
      vertex 20.64 17.6601 13.5
    endloop
  endfacet
  facet normal 0.573575 0.819153 0
    outer loop
      vertex 18.525 19.4349 4.5
      vertex 19.6601 18.64 13.5
      vertex 19.6601 18.64 4.5
    endloop
  endfacet
  facet normal 0.573575 0.819153 -0
    outer loop
      vertex 18.525 19.4349 4.5
      vertex 18.525 19.4349 13.5
      vertex 19.6601 18.64 13.5
    endloop
  endfacet
  facet normal 0.422624 0.906305 0
    outer loop
      vertex 17.269 20.0205 4.5
      vertex 18.525 19.4349 13.5
      vertex 18.525 19.4349 4.5
    endloop
  endfacet
  facet normal 0.422624 0.906305 -0
    outer loop
      vertex 17.269 20.0205 4.5
      vertex 17.269 20.0205 13.5
      vertex 18.525 19.4349 13.5
    endloop
  endfacet
  facet normal 0.258813 0.965927 0
    outer loop
      vertex 15.9305 20.3792 4.5
      vertex 17.269 20.0205 13.5
      vertex 17.269 20.0205 4.5
    endloop
  endfacet
  facet normal 0.258813 0.965927 -0
    outer loop
      vertex 15.9305 20.3792 4.5
      vertex 15.9305 20.3792 13.5
      vertex 17.269 20.0205 13.5
    endloop
  endfacet
  facet normal 0.0871637 0.996194 0
    outer loop
      vertex 14.55 20.5 4.5
      vertex 15.9305 20.3792 13.5
      vertex 15.9305 20.3792 4.5
    endloop
  endfacet
  facet normal 0.0871637 0.996194 -0
    outer loop
      vertex 14.55 20.5 4.5
      vertex 14.55 20.5 13.5
      vertex 15.9305 20.3792 13.5
    endloop
  endfacet
  facet normal 0 1 0
    outer loop
      vertex -14.55 20.5 4.5
      vertex 14.55 20.5 13.5
      vertex 14.55 20.5 4.5
    endloop
  endfacet
  facet normal 0 1 0
    outer loop
      vertex -14.55 20.5 4.5
      vertex -14.55 20.5 13.5
      vertex 14.55 20.5 13.5
    endloop
  endfacet
  facet normal -0.0871637 0.996194 0
    outer loop
      vertex -15.9305 20.3792 4.5
      vertex -14.55 20.5 13.5
      vertex -14.55 20.5 4.5
    endloop
  endfacet
  facet normal -0.0871637 0.996194 0
    outer loop
      vertex -15.9305 20.3792 4.5
      vertex -15.9305 20.3792 13.5
      vertex -14.55 20.5 13.5
    endloop
  endfacet
  facet normal -0.258813 0.965927 0
    outer loop
      vertex -17.269 20.0205 4.5
      vertex -15.9305 20.3792 13.5
      vertex -15.9305 20.3792 4.5
    endloop
  endfacet
  facet normal -0.258813 0.965927 0
    outer loop
      vertex -17.269 20.0205 4.5
      vertex -17.269 20.0205 13.5
      vertex -15.9305 20.3792 13.5
    endloop
  endfacet
  facet normal -0.422624 0.906305 0
    outer loop
      vertex -18.525 19.4349 4.5
      vertex -17.269 20.0205 13.5
      vertex -17.269 20.0205 4.5
    endloop
  endfacet
  facet normal -0.422624 0.906305 0
    outer loop
      vertex -18.525 19.4349 4.5
      vertex -18.525 19.4349 13.5
      vertex -17.269 20.0205 13.5
    endloop
  endfacet
  facet normal -0.573575 0.819153 0
    outer loop
      vertex -19.6601 18.64 4.5
      vertex -18.525 19.4349 13.5
      vertex -18.525 19.4349 4.5
    endloop
  endfacet
  facet normal -0.573575 0.819153 0
    outer loop
      vertex -19.6601 18.64 4.5
      vertex -19.6601 18.64 13.5
      vertex -18.525 19.4349 13.5
    endloop
  endfacet
  facet normal -0.707107 0.707107 0
    outer loop
      vertex -20.64 17.6601 4.5
      vertex -19.6601 18.64 13.5
      vertex -19.6601 18.64 4.5
    endloop
  endfacet
  facet normal -0.707107 0.707107 0
    outer loop
      vertex -20.64 17.6601 4.5
      vertex -20.64 17.6601 13.5
      vertex -19.6601 18.64 13.5
    endloop
  endfacet
  facet normal -0.819153 0.573575 0
    outer loop
      vertex -21.4349 16.525 4.5
      vertex -20.64 17.6601 13.5
      vertex -20.64 17.6601 4.5
    endloop
  endfacet
  facet normal -0.819153 0.573575 0
    outer loop
      vertex -21.4349 16.525 4.5
      vertex -21.4349 16.525 13.5
      vertex -20.64 17.6601 13.5
    endloop
  endfacet
  facet normal -0.906305 0.422624 0
    outer loop
      vertex -22.0205 15.269 4.5
      vertex -21.4349 16.525 13.5
      vertex -21.4349 16.525 4.5
    endloop
  endfacet
  facet normal -0.906305 0.422624 0
    outer loop
      vertex -22.0205 15.269 4.5
      vertex -22.0205 15.269 13.5
      vertex -21.4349 16.525 13.5
    endloop
  endfacet
  facet normal -0.965927 0.258813 0
    outer loop
      vertex -22.3792 13.9305 4.5
      vertex -22.0205 15.269 13.5
      vertex -22.0205 15.269 4.5
    endloop
  endfacet
  facet normal -0.965927 0.258813 0
    outer loop
      vertex -22.3792 13.9305 4.5
      vertex -22.3792 13.9305 13.5
      vertex -22.0205 15.269 13.5
    endloop
  endfacet
  facet normal -0.996194 0.0871637 0
    outer loop
      vertex -22.5 12.55 4.5
      vertex -22.3792 13.9305 13.5
      vertex -22.3792 13.9305 4.5
    endloop
  endfacet
  facet normal -0.996194 0.0871637 0
    outer loop
      vertex -22.5 12.55 4.5
      vertex -22.5 12.55 13.5
      vertex -22.3792 13.9305 13.5
    endloop
  endfacet
  facet normal -1 0 0
    outer loop
      vertex -22.5 -12.55 4.5
      vertex -22.5 12.55 13.5
      vertex -22.5 12.55 4.5
    endloop
  endfacet
  facet normal -1 0 0
    outer loop
      vertex -22.5 -12.55 4.5
      vertex -22.5 -12.55 13.5
      vertex -22.5 12.55 13.5
    endloop
  endfacet
  facet normal -0.996194 -0.0871637 0
    outer loop
      vertex -22.3792 -13.9305 4.5
      vertex -22.5 -12.55 13.5
      vertex -22.5 -12.55 4.5
    endloop
  endfacet
  facet normal -0.996194 -0.0871637 0
    outer loop
      vertex -22.3792 -13.9305 4.5
      vertex -22.3792 -13.9305 13.5
      vertex -22.5 -12.55 13.5
    endloop
  endfacet
  facet normal -0.965927 -0.258813 0
    outer loop
      vertex -22.0205 -15.269 4.5
      vertex -22.3792 -13.9305 13.5
      vertex -22.3792 -13.9305 4.5
    endloop
  endfacet
  facet normal -0.965927 -0.258813 0
    outer loop
      vertex -22.0205 -15.269 4.5
      vertex -22.0205 -15.269 13.5
      vertex -22.3792 -13.9305 13.5
    endloop
  endfacet
  facet normal -0.906305 -0.422624 0
    outer loop
      vertex -21.4349 -16.525 4.5
      vertex -22.0205 -15.269 13.5
      vertex -22.0205 -15.269 4.5
    endloop
  endfacet
  facet normal -0.906305 -0.422624 0
    outer loop
      vertex -21.4349 -16.525 4.5
      vertex -21.4349 -16.525 13.5
      vertex -22.0205 -15.269 13.5
    endloop
  endfacet
  facet normal -0.819153 -0.573575 0
    outer loop
      vertex -20.64 -17.6601 4.5
      vertex -21.4349 -16.525 13.5
      vertex -21.4349 -16.525 4.5
    endloop
  endfacet
  facet normal -0.819153 -0.573575 0
    outer loop
      vertex -20.64 -17.6601 4.5
      vertex -20.64 -17.6601 13.5
      vertex -21.4349 -16.525 13.5
    endloop
  endfacet
  facet normal -0.707107 -0.707107 0
    outer loop
      vertex -19.6601 -18.64 4.5
      vertex -20.64 -17.6601 13.5
      vertex -20.64 -17.6601 4.5
    endloop
  endfacet
  facet normal -0.707107 -0.707107 0
    outer loop
      vertex -19.6601 -18.64 4.5
      vertex -19.6601 -18.64 13.5
      vertex -20.64 -17.6601 13.5
    endloop
  endfacet
  facet normal -0.573575 -0.819153 0
    outer loop
      vertex -18.525 -19.4349 4.5
      vertex -19.6601 -18.64 13.5
      vertex -19.6601 -18.64 4.5
    endloop
  endfacet
  facet normal -0.573575 -0.819153 0
    outer loop
      vertex -18.525 -19.4349 4.5
      vertex -18.525 -19.4349 13.5
      vertex -19.6601 -18.64 13.5
    endloop
  endfacet
  facet normal -0.422624 -0.906305 0
    outer loop
      vertex -17.269 -20.0205 4.5
      vertex -18.525 -19.4349 13.5
      vertex -18.525 -19.4349 4.5
    endloop
  endfacet
  facet normal -0.422624 -0.906305 0
    outer loop
      vertex -17.269 -20.0205 4.5
      vertex -17.269 -20.0205 13.5
      vertex -18.525 -19.4349 13.5
    endloop
  endfacet
  facet normal -0.258813 -0.965927 0
    outer loop
      vertex -15.9305 -20.3792 4.5
      vertex -17.269 -20.0205 13.5
      vertex -17.269 -20.0205 4.5
    endloop
  endfacet
  facet normal -0.258813 -0.965927 0
    outer loop
      vertex -15.9305 -20.3792 4.5
      vertex -15.9305 -20.3792 13.5
      vertex -17.269 -20.0205 13.5
    endloop
  endfacet
  facet normal -0.0871637 -0.996194 0
    outer loop
      vertex -14.55 -20.5 4.5
      vertex -15.9305 -20.3792 13.5
      vertex -15.9305 -20.3792 4.5
    endloop
  endfacet
  facet normal -0.0871637 -0.996194 0
    outer loop
      vertex -14.55 -20.5 4.5
      vertex -14.55 -20.5 13.5
      vertex -15.9305 -20.3792 13.5
    endloop
  endfacet
  facet normal 0 -1 0
    outer loop
      vertex 14.55 -20.5 4.5
      vertex -14.55 -20.5 13.5
      vertex -14.55 -20.5 4.5
    endloop
  endfacet
  facet normal 0 -1 0
    outer loop
      vertex 14.55 -20.5 4.5
      vertex 14.55 -20.5 13.5
      vertex -14.55 -20.5 13.5
    endloop
  endfacet
  facet normal 0.0871637 -0.996194 0
    outer loop
      vertex 15.9305 -20.3792 4.5
      vertex 14.55 -20.5 13.5
      vertex 14.55 -20.5 4.5
    endloop
  endfacet
  facet normal 0.0871637 -0.996194 0
    outer loop
      vertex 15.9305 -20.3792 4.5
      vertex 15.9305 -20.3792 13.5
      vertex 14.55 -20.5 13.5
    endloop
  endfacet
  facet normal 0.707117 0.707097 -0
    outer loop
      vertex -15.799 11.75 4.5
      vertex -15.799 11.75 13.5
      vertex -15.25 11.201 4.5
    endloop
  endfacet
  facet normal 0.707117 0.707097 0
    outer loop
      vertex -15.25 11.201 13.5
      vertex -15.25 11.201 4.5
      vertex -15.799 11.75 13.5
    endloop
  endfacet
  facet normal 0.965922 0.258833 -0
    outer loop
      vertex -16 12.5 4.5
      vertex -16 12.5 13.5
      vertex -15.799 11.75 4.5
    endloop
  endfacet
  facet normal 0.965922 0.258833 0
    outer loop
      vertex -15.799 11.75 13.5
      vertex -15.799 11.75 4.5
      vertex -16 12.5 13.5
    endloop
  endfacet
  facet normal 0.965922 -0.258833 0
    outer loop
      vertex -15.799 13.25 4.5
      vertex -15.799 13.25 13.5
      vertex -16 12.5 4.5
    endloop
  endfacet
  facet normal 0.965922 -0.258833 0
    outer loop
      vertex -16 12.5 13.5
      vertex -16 12.5 4.5
      vertex -15.799 13.25 13.5
    endloop
  endfacet
  facet normal 0.707107 -0.707107 0
    outer loop
      vertex -15.25 13.799 4.5
      vertex -15.25 13.799 13.5
      vertex -15.799 13.25 4.5
    endloop
  endfacet
  facet normal 0.707107 -0.707107 0
    outer loop
      vertex -15.799 13.25 13.5
      vertex -15.799 13.25 4.5
      vertex -15.25 13.799 13.5
    endloop
  endfacet
  facet normal 0.258833 -0.965922 0
    outer loop
      vertex -14.5 14 4.5
      vertex -14.5 14 13.5
      vertex -15.25 13.799 4.5
    endloop
  endfacet
  facet normal 0.258833 -0.965922 0
    outer loop
      vertex -15.25 13.799 13.5
      vertex -15.25 13.799 4.5
      vertex -14.5 14 13.5
    endloop
  endfacet
  facet normal -0.258833 -0.965922 0
    outer loop
      vertex -13.75 13.799 4.5
      vertex -13.75 13.799 13.5
      vertex -14.5 14 4.5
    endloop
  endfacet
  facet normal -0.258833 -0.965922 -0
    outer loop
      vertex -14.5 14 13.5
      vertex -14.5 14 4.5
      vertex -13.75 13.799 13.5
    endloop
  endfacet
  facet normal -0.707097 -0.707117 0
    outer loop
      vertex -13.201 13.25 4.5
      vertex -13.201 13.25 13.5
      vertex -13.75 13.799 4.5
    endloop
  endfacet
  facet normal -0.707097 -0.707117 -0
    outer loop
      vertex -13.75 13.799 13.5
      vertex -13.75 13.799 4.5
      vertex -13.201 13.25 13.5
    endloop
  endfacet
  facet normal -0.965927 -0.258815 0
    outer loop
      vertex -13 12.5 4.5
      vertex -13 12.5 13.5
      vertex -13.201 13.25 4.5
    endloop
  endfacet
  facet normal -0.965927 -0.258815 -0
    outer loop
      vertex -13.201 13.25 13.5
      vertex -13.201 13.25 4.5
      vertex -13 12.5 13.5
    endloop
  endfacet
  facet normal -0.965927 0.258815 0
    outer loop
      vertex -13.201 11.75 4.5
      vertex -13.201 11.75 13.5
      vertex -13 12.5 4.5
    endloop
  endfacet
  facet normal -0.965927 0.258815 0
    outer loop
      vertex -13 12.5 13.5
      vertex -13 12.5 4.5
      vertex -13.201 11.75 13.5
    endloop
  endfacet
  facet normal -0.707107 0.707107 0
    outer loop
      vertex -13.75 11.201 4.5
      vertex -13.75 11.201 13.5
      vertex -13.201 11.75 4.5
    endloop
  endfacet
  facet normal -0.707107 0.707107 0
    outer loop
      vertex -13.201 11.75 13.5
      vertex -13.201 11.75 4.5
      vertex -13.75 11.201 13.5
    endloop
  endfacet
  facet normal -0.258815 0.965927 0
    outer loop
      vertex -14.5 11 4.5
      vertex -14.5 11 13.5
      vertex -13.75 11.201 4.5
    endloop
  endfacet
  facet normal -0.258815 0.965927 0
    outer loop
      vertex -13.75 11.201 13.5
      vertex -13.75 11.201 4.5
      vertex -14.5 11 13.5
    endloop
  endfacet
  facet normal 0.258815 0.965927 -0
    outer loop
      vertex -15.25 11.201 4.5
      vertex -15.25 11.201 13.5
      vertex -14.5 11 4.5
    endloop
  endfacet
  facet normal 0.258815 0.965927 0
    outer loop
      vertex -14.5 11 13.5
      vertex -14.5 11 4.5
      vertex -15.25 11.201 13.5
    endloop
  endfacet
  facet normal 0.707107 0.707107 -0
    outer loop
      vertex 13.201 11.75 4.5
      vertex 13.201 11.75 13.5
      vertex 13.75 11.201 4.5
    endloop
  endfacet
  facet normal 0.707107 0.707107 0
    outer loop
      vertex 13.75 11.201 13.5
      vertex 13.75 11.201 4.5
      vertex 13.201 11.75 13.5
    endloop
  endfacet
  facet normal 0.965927 0.258815 -0
    outer loop
      vertex 13 12.5 4.5
      vertex 13 12.5 13.5
      vertex 13.201 11.75 4.5
    endloop
  endfacet
  facet normal 0.965927 0.258815 0
    outer loop
      vertex 13.201 11.75 13.5
      vertex 13.201 11.75 4.5
      vertex 13 12.5 13.5
    endloop
  endfacet
  facet normal 0.965927 -0.258815 0
    outer loop
      vertex 13.201 13.25 4.5
      vertex 13.201 13.25 13.5
      vertex 13 12.5 4.5
    endloop
  endfacet
  facet normal 0.965927 -0.258815 0
    outer loop
      vertex 13 12.5 13.5
      vertex 13 12.5 4.5
      vertex 13.201 13.25 13.5
    endloop
  endfacet
  facet normal 0.707097 -0.707117 0
    outer loop
      vertex 13.75 13.799 4.5
      vertex 13.75 13.799 13.5
      vertex 13.201 13.25 4.5
    endloop
  endfacet
  facet normal 0.707097 -0.707117 0
    outer loop
      vertex 13.201 13.25 13.5
      vertex 13.201 13.25 4.5
      vertex 13.75 13.799 13.5
    endloop
  endfacet
  facet normal 0.258833 -0.965922 0
    outer loop
      vertex 14.5 14 4.5
      vertex 14.5 14 13.5
      vertex 13.75 13.799 4.5
    endloop
  endfacet
  facet normal 0.258833 -0.965922 0
    outer loop
      vertex 13.75 13.799 13.5
      vertex 13.75 13.799 4.5
      vertex 14.5 14 13.5
    endloop
  endfacet
  facet normal -0.258833 -0.965922 0
    outer loop
      vertex 15.25 13.799 4.5
      vertex 15.25 13.799 13.5
      vertex 14.5 14 4.5
    endloop
  endfacet
  facet normal -0.258833 -0.965922 -0
    outer loop
      vertex 14.5 14 13.5
      vertex 14.5 14 4.5
      vertex 15.25 13.799 13.5
    endloop
  endfacet
  facet normal -0.707107 -0.707107 0
    outer loop
      vertex 15.799 13.25 4.5
      vertex 15.799 13.25 13.5
      vertex 15.25 13.799 4.5
    endloop
  endfacet
  facet normal -0.707107 -0.707107 -0
    outer loop
      vertex 15.25 13.799 13.5
      vertex 15.25 13.799 4.5
      vertex 15.799 13.25 13.5
    endloop
  endfacet
  facet normal -0.965922 -0.258833 0
    outer loop
      vertex 16 12.5 4.5
      vertex 16 12.5 13.5
      vertex 15.799 13.25 4.5
    endloop
  endfacet
  facet normal -0.965922 -0.258833 -0
    outer loop
      vertex 15.799 13.25 13.5
      vertex 15.799 13.25 4.5
      vertex 16 12.5 13.5
    endloop
  endfacet
  facet normal -0.965922 0.258833 0
    outer loop
      vertex 15.799 11.75 4.5
      vertex 15.799 11.75 13.5
      vertex 16 12.5 4.5
    endloop
  endfacet
  facet normal -0.965922 0.258833 0
    outer loop
      vertex 16 12.5 13.5
      vertex 16 12.5 4.5
      vertex 15.799 11.75 13.5
    endloop
  endfacet
  facet normal -0.707117 0.707097 0
    outer loop
      vertex 15.25 11.201 4.5
      vertex 15.25 11.201 13.5
      vertex 15.799 11.75 4.5
    endloop
  endfacet
  facet normal -0.707117 0.707097 0
    outer loop
      vertex 15.799 11.75 13.5
      vertex 15.799 11.75 4.5
      vertex 15.25 11.201 13.5
    endloop
  endfacet
  facet normal -0.258815 0.965927 0
    outer loop
      vertex 14.5 11 4.5
      vertex 14.5 11 13.5
      vertex 15.25 11.201 4.5
    endloop
  endfacet
  facet normal -0.258815 0.965927 0
    outer loop
      vertex 15.25 11.201 13.5
      vertex 15.25 11.201 4.5
      vertex 14.5 11 13.5
    endloop
  endfacet
  facet normal 0.258815 0.965927 -0
    outer loop
      vertex 13.75 11.201 4.5
      vertex 13.75 11.201 13.5
      vertex 14.5 11 4.5
    endloop
  endfacet
  facet normal 0.258815 0.965927 0
    outer loop
      vertex 14.5 11 13.5
      vertex 14.5 11 4.5
      vertex 13.75 11.201 13.5
    endloop
  endfacet
  facet normal 0.707107 0.707107 -0
    outer loop
      vertex -15.799 -13.25 4.5
      vertex -15.799 -13.25 13.5
      vertex -15.25 -13.799 4.5
    endloop
  endfacet
  facet normal 0.707107 0.707107 0
    outer loop
      vertex -15.25 -13.799 13.5
      vertex -15.25 -13.799 4.5
      vertex -15.799 -13.25 13.5
    endloop
  endfacet
  facet normal 0.965922 0.258833 -0
    outer loop
      vertex -16 -12.5 4.5
      vertex -16 -12.5 13.5
      vertex -15.799 -13.25 4.5
    endloop
  endfacet
  facet normal 0.965922 0.258833 0
    outer loop
      vertex -15.799 -13.25 13.5
      vertex -15.799 -13.25 4.5
      vertex -16 -12.5 13.5
    endloop
  endfacet
  facet normal 0.965922 -0.258833 0
    outer loop
      vertex -15.799 -11.75 4.5
      vertex -15.799 -11.75 13.5
      vertex -16 -12.5 4.5
    endloop
  endfacet
  facet normal 0.965922 -0.258833 0
    outer loop
      vertex -16 -12.5 13.5
      vertex -16 -12.5 4.5
      vertex -15.799 -11.75 13.5
    endloop
  endfacet
  facet normal 0.707117 -0.707097 0
    outer loop
      vertex -15.25 -11.201 4.5
      vertex -15.25 -11.201 13.5
      vertex -15.799 -11.75 4.5
    endloop
  endfacet
  facet normal 0.707117 -0.707097 0
    outer loop
      vertex -15.799 -11.75 13.5
      vertex -15.799 -11.75 4.5
      vertex -15.25 -11.201 13.5
    endloop
  endfacet
  facet normal 0.258815 -0.965927 0
    outer loop
      vertex -14.5 -11 4.5
      vertex -14.5 -11 13.5
      vertex -15.25 -11.201 4.5
    endloop
  endfacet
  facet normal 0.258815 -0.965927 0
    outer loop
      vertex -15.25 -11.201 13.5
      vertex -15.25 -11.201 4.5
      vertex -14.5 -11 13.5
    endloop
  endfacet
  facet normal -0.258815 -0.965927 0
    outer loop
      vertex -13.75 -11.201 4.5
      vertex -13.75 -11.201 13.5
      vertex -14.5 -11 4.5
    endloop
  endfacet
  facet normal -0.258815 -0.965927 -0
    outer loop
      vertex -14.5 -11 13.5
      vertex -14.5 -11 4.5
      vertex -13.75 -11.201 13.5
    endloop
  endfacet
  facet normal -0.707107 -0.707107 0
    outer loop
      vertex -13.201 -11.75 4.5
      vertex -13.201 -11.75 13.5
      vertex -13.75 -11.201 4.5
    endloop
  endfacet
  facet normal -0.707107 -0.707107 -0
    outer loop
      vertex -13.75 -11.201 13.5
      vertex -13.75 -11.201 4.5
      vertex -13.201 -11.75 13.5
    endloop
  endfacet
  facet normal -0.965927 -0.258815 0
    outer loop
      vertex -13 -12.5 4.5
      vertex -13 -12.5 13.5
      vertex -13.201 -11.75 4.5
    endloop
  endfacet
  facet normal -0.965927 -0.258815 -0
    outer loop
      vertex -13.201 -11.75 13.5
      vertex -13.201 -11.75 4.5
      vertex -13 -12.5 13.5
    endloop
  endfacet
  facet normal -0.965927 0.258815 0
    outer loop
      vertex -13.201 -13.25 4.5
      vertex -13.201 -13.25 13.5
      vertex -13 -12.5 4.5
    endloop
  endfacet
  facet normal -0.965927 0.258815 0
    outer loop
      vertex -13 -12.5 13.5
      vertex -13 -12.5 4.5
      vertex -13.201 -13.25 13.5
    endloop
  endfacet
  facet normal -0.707097 0.707117 0
    outer loop
      vertex -13.75 -13.799 4.5
      vertex -13.75 -13.799 13.5
      vertex -13.201 -13.25 4.5
    endloop
  endfacet
  facet normal -0.707097 0.707117 0
    outer loop
      vertex -13.201 -13.25 13.5
      vertex -13.201 -13.25 4.5
      vertex -13.75 -13.799 13.5
    endloop
  endfacet
  facet normal -0.258833 0.965922 0
    outer loop
      vertex -14.5 -14 4.5
      vertex -14.5 -14 13.5
      vertex -13.75 -13.799 4.5
    endloop
  endfacet
  facet normal -0.258833 0.965922 0
    outer loop
      vertex -13.75 -13.799 13.5
      vertex -13.75 -13.799 4.5
      vertex -14.5 -14 13.5
    endloop
  endfacet
  facet normal 0.258833 0.965922 -0
    outer loop
      vertex -15.25 -13.799 4.5
      vertex -15.25 -13.799 13.5
      vertex -14.5 -14 4.5
    endloop
  endfacet
  facet normal 0.258833 0.965922 0
    outer loop
      vertex -14.5 -14 13.5
      vertex -14.5 -14 4.5
      vertex -15.25 -13.799 13.5
    endloop
  endfacet
  facet normal 0.707097 0.707117 -0
    outer loop
      vertex 13.201 -13.25 4.5
      vertex 13.201 -13.25 13.5
      vertex 13.75 -13.799 4.5
    endloop
  endfacet
  facet normal 0.707097 0.707117 0
    outer loop
      vertex 13.75 -13.799 13.5
      vertex 13.75 -13.799 4.5
      vertex 13.201 -13.25 13.5
    endloop
  endfacet
  facet normal 0.965927 0.258815 -0
    outer loop
      vertex 13 -12.5 4.5
      vertex 13 -12.5 13.5
      vertex 13.201 -13.25 4.5
    endloop
  endfacet
  facet normal 0.965927 0.258815 0
    outer loop
      vertex 13.201 -13.25 13.5
      vertex 13.201 -13.25 4.5
      vertex 13 -12.5 13.5
    endloop
  endfacet
  facet normal 0.965927 -0.258815 0
    outer loop
      vertex 13.201 -11.75 4.5
      vertex 13.201 -11.75 13.5
      vertex 13 -12.5 4.5
    endloop
  endfacet
  facet normal 0.965927 -0.258815 0
    outer loop
      vertex 13 -12.5 13.5
      vertex 13 -12.5 4.5
      vertex 13.201 -11.75 13.5
    endloop
  endfacet
  facet normal 0.707107 -0.707107 0
    outer loop
      vertex 13.75 -11.201 4.5
      vertex 13.75 -11.201 13.5
      vertex 13.201 -11.75 4.5
    endloop
  endfacet
  facet normal 0.707107 -0.707107 0
    outer loop
      vertex 13.201 -11.75 13.5
      vertex 13.201 -11.75 4.5
      vertex 13.75 -11.201 13.5
    endloop
  endfacet
  facet normal 0.258815 -0.965927 0
    outer loop
      vertex 14.5 -11 4.5
      vertex 14.5 -11 13.5
      vertex 13.75 -11.201 4.5
    endloop
  endfacet
  facet normal 0.258815 -0.965927 0
    outer loop
      vertex 13.75 -11.201 13.5
      vertex 13.75 -11.201 4.5
      vertex 14.5 -11 13.5
    endloop
  endfacet
  facet normal -0.258815 -0.965927 0
    outer loop
      vertex 15.25 -11.201 4.5
      vertex 15.25 -11.201 13.5
      vertex 14.5 -11 4.5
    endloop
  endfacet
  facet normal -0.258815 -0.965927 -0
    outer loop
      vertex 14.5 -11 13.5
      vertex 14.5 -11 4.5
      vertex 15.25 -11.201 13.5
    endloop
  endfacet
  facet normal -0.707117 -0.707097 0
    outer loop
      vertex 15.799 -11.75 4.5
      vertex 15.799 -11.75 13.5
      vertex 15.25 -11.201 4.5
    endloop
  endfacet
  facet normal -0.707117 -0.707097 -0
    outer loop
      vertex 15.25 -11.201 13.5
      vertex 15.25 -11.201 4.5
      vertex 15.799 -11.75 13.5
    endloop
  endfacet
  facet normal -0.965922 -0.258833 0
    outer loop
      vertex 16 -12.5 4.5
      vertex 16 -12.5 13.5
      vertex 15.799 -11.75 4.5
    endloop
  endfacet
  facet normal -0.965922 -0.258833 -0
    outer loop
      vertex 15.799 -11.75 13.5
      vertex 15.799 -11.75 4.5
      vertex 16 -12.5 13.5
    endloop
  endfacet
  facet normal -0.965922 0.258833 0
    outer loop
      vertex 15.799 -13.25 4.5
      vertex 15.799 -13.25 13.5
      vertex 16 -12.5 4.5
    endloop
  endfacet
  facet normal -0.965922 0.258833 0
    outer loop
      vertex 16 -12.5 13.5
      vertex 16 -12.5 4.5
      vertex 15.799 -13.25 13.5
    endloop
  endfacet
  facet normal -0.707107 0.707107 0
    outer loop
      vertex 15.25 -13.799 4.5
      vertex 15.25 -13.799 13.5
      vertex 15.799 -13.25 4.5
    endloop
  endfacet
  facet normal -0.707107 0.707107 0
    outer loop
      vertex 15.799 -13.25 13.5
      vertex 15.799 -13.25 4.5
      vertex 15.25 -13.799 13.5
    endloop
  endfacet
  facet normal -0.258833 0.965922 0
    outer loop
      vertex 14.5 -14 4.5
      vertex 14.5 -14 13.5
      vertex 15.25 -13.799 4.5
    endloop
  endfacet
  facet normal -0.258833 0.965922 0
    outer loop
      vertex 15.25 -13.799 13.5
      vertex 15.25 -13.799 4.5
      vertex 14.5 -14 13.5
    endloop
  endfacet
  facet normal 0.258833 0.965922 -0
    outer loop
      vertex 13.75 -13.799 4.5
      vertex 13.75 -13.799 13.5
      vertex 14.5 -14 4.5
    endloop
  endfacet
  facet normal 0.258833 0.965922 0
    outer loop
      vertex 14.5 -14 13.5
      vertex 14.5 -14 4.5
      vertex 13.75 -13.799 13.5
    endloop
  endfacet
endsolid OpenSCAD_Model
